<?xml version="1.0" encoding="utf-8"?>
<!-- Generator: Adobe Illustrator 22.1.0, SVG Export Plug-In . SVG Version: 6.00 Build 0)  -->
<svg version="1.1" id="Layer_1" xmlns="http://www.w3.org/2000/svg" xmlns:xlink="http://www.w3.org/1999/xlink" x="0px" y="0px"
	 viewBox="0 0 685 685" style="enable-background:new 0 0 685 685;" xml:space="preserve">
<style type="text/css">
	.st0{fill:#FFFFFF;}
</style>
<path class="st0" d="M363,24.4c1.7,0,3.3,0,5,0c0.3,2.3,0.7,4.7,1,7c3-0.7,6-1.3,9-2c0,1.7,0,3.3,0,5c11,0.3,21.4,4.5,29,10
	c0.6,5.6,1,3.7,1,10c-2.3,0.3-4.7,0.7-7,1c0,1.7,0,3.3,0,5c0.3,0.7,0.7,1.3,1,2c5.7,0,11.3,0,17,0c-1.3,2.9-1.5,0.6-1,4
	c6.3,0,12.7,0,19,0c-1.6,9.1,3,10.1,12,9c-0.2-3.2-1.1-3.4,1-6c6.4,5.5,9.5,5.6,21,5c-0.6,7.2-2.5,2.1-3,10c3.7,0.6,52,24,52,24
	c2.4,3.9,2,9.6,5,14c4.3,6.3,24.7,15.3,29,20c1.5,1.7,2.8,1.5,4,1c0.3,0.3,0.7,0.7,1,1c0.7-0.3,1.3-0.7,2-1c0-2,0-4,0-6
	c-6.5-2.2-10.7-8.9-12-16c10.6,0.8,13.9,6.7,21,11c0.3,0,0.7,0,1,0c0-1.3,0-2.7,0-4c-4.2-4.9-13.7-11.4-16-17c4.4-1.6,2.9,0,4-5
	c-4.5-2.8-6.7-3.8-11-5c-0.8,1.2,0.4,1.2-1,1c-4.7-6-9.3-12-14-18c-20-14.8-49.7-39-71-38c0.7-4.7,1.7-4.4-2-7
	c-6.3-3.2-12.7-6.7-18-9c0-0.3,0-0.7,0-1c19.2,0.7,25.4,9.4,37,15c13,6.3,22.7,5.3,33,13c20.3,15.3,39.7,33.9,56,50
	c12.2,12,30.6,14.9,39,31c-3.1,3.2-2.5,2-3,8c7.3,0,7.6,0.7,13,1c-0.4,5.7,0.8,1,2,6c-6.2,2.9-3.3,9,3,10c0.7-3.6,0.7-2.9,2-5
	c1.7,1,3.3,2,5,3c-1.3,4-2.7,8-4,12c0.7,0,1.3,0,2,0c2,0,4,0,6,0c0.1,11,13.5,28,20,30c-5.6,8.3-11.9,15.4-7,26
	c-1.7-0.3-3.3-0.7-5-1c0.1,9.3-11.9,26.6-16,34c-10.4-2.4-29.7,27.6-44,31c0.3-2.3,0.7-4.7,1-7c-2.3,0-4.7,0-7,0
	c-3.2,7-11.8,11.6-19,15c-10.2-6.6-23.1-2.3-39-2c2-3.4,2.6-2.9,2-7c-9.7-1.3-15.1,1.4-25,2c2.2-8.9-17.9-33.2-25-42
	c-20.8-25.9-64.4-81.4-119-71c-7.7,2.7-15.3,5.3-23,8c0.3-2.7,0.7-5.3,1-8c-6.3-0.3-12.7-0.7-19-1c-17.4,4.5-65,16-65,16
	c-6,6.7-12,13.3-18,20c-10.4,9.2-24.7,13.3-30,25c2.9,6.2-22.9,54.1-27,67c-5.5,17.3,8.4,76.6,13,89c5,1.7,10,3.3,15,5c0,2,0,4,0,6
	c15.3,11.2,16.9,27.1,33,35c2.3-1,4.7-2,7-3c10.1,15.3,31.1,16.5,50,24c4.7,3.7,9.3,7.3,14,11c25.9,14,52.3,13.7,81,2
	c5.1-2.1,25.1-0.5,29-4c7.7-2.2,5-8.2,8-12c2,3.2,3.1,3.7,7,2c8.3-5.3,16.7-10.7,25-16c3.3,0.7,6.7,1.3,10,2c6.9-2,11.6-9.2,16-13
	c0.7,0.7,1.3,1.3,2,2c-0.7,0.7-1.3,1.3-2,2c8.2-0.5,17-2,19,1c-9.9,1.6-14.8,10.6-17,17c11.4-0.3,11.6-4.1,18-8c2.6,4,0.7,4.2,7,5
	c-0.3,1-0.7,2-1,3c-7.3,4.3-14.7,8.7-22,13c-0.3,3-0.7,6-1,9c16.9-0.6,22.9-6.2,34-10c-0.7,2.3-1.3,4.7-2,7c2.7,0.7,5.3,1.3,8,2
	c-6.6,3.2-12.9,6.7-17,15c1,0.3,2,0.7,3,1c0.3,0,0.7,0,1,0c3.7-2.7,7.3-5.3,11-8c-3.3,4.7-6.7,9.3-10,14c0,0.3,0,0.7,0,1
	c0.3,0,0.7,0,1,0c17.6-7,30.9-23.5,50-30c-1,3-2,6-3,9c2.3,0.3,4.7,0.7,7,1c-1.7,1.7-3.3,3.3-5,5c-2.9,3.8-5.9,1.2-11,4
	c-2.3,5-4.7,10-7,15c-5.9,5.5-13,6.1-19,9c-8.7,4.3-11.3,17.4-21,22c2.9-6.8,3.8-9.2,8-15c-9.5,2.7-11.3,10.1-22,12c0.7-3,1.3-6,2-9
	c-1.3,0-2.7,0-4,0c-6.6,3.3-11,7.1-15,13c0,0.7,0,1.3,0,2c2,0.7,4,1.3,6,2c-2,1.8-0.7,0-2,3c2-0.3,4-0.7,6-1c-0.3,0.7-0.7,1.3-1,2
	c-4.1,1.7-3.7,0.1-5,4c0.7,0.3,1.3,0.7,2,1c1.3,0,2.7,0,4,0c-0.3,0.7-0.7,1.3-1,2c-7.2,1.6-15,6.8-17,14c5.3-2,10.7-4,16-6
	c0,1,0,2,0,3c-4,1.1-3.8,1.4-6,4c0.3,0.7,0.7,1.3,1,2c7.4-0.6,10.8-5.3,15-6c-7.2,12.3-18.5,11-26,18c0.8,7.2,2.1,7.1-1,12
	c-7.3,2.2-12.7,8-18,10c-3.1,1.2-10.4-6.1-16-1c-3.2,2.9-4,9.7-11,12c-10.6,3.5-29.7-6.9-48-1c2.6-6.9,9.4-5.5,14-10
	c-0.7-1-1.3-2-2-3c6.7-0.6,43.7-0.9,56-9c0-0.3,0-0.7,0-1c-4-6.6-68.3-1.3-76,7c-0.3,3.7-1.4,4.9,3,4c0.7,1.3,1.3,2.7,2,4
	c1,0.1,0.3,0.4,0,1c-5.4,4.3-10.8,7.3-20,8c-2.7-1.3-5.3-2.7-8-4c0-0.3,0-0.7,0-1c8,0.4,14.5,1.6,20-1c0-0.3,0-0.7,0-1
	c-1.3-3,0-1.2-2-3c-18.9-8.2-43.7,0.6-67,2c0.6-3.5,0.4-2.9-1-6c-17.8,0.6-42.7-6.3-48-15c1.7,0,3.3,0,5,0c1.9,3.4,1.6,3,6,4
	c-0.3-1-0.7-2-1-3c-3-1.8-2.6-1.3-4-5c5.7,1.2,6.8,2,9-3c-9.2-1.5-6.8-6.4-16-8c-1.5,4.9,0.3,3.1-5,4c-4-1.3-8-2.7-12-4
	c0.3-1,0.7-2,1-3c1.7,0,3.3,0,5,0c-3.6-4.7-61.7-41.6-66-43c0,3.9-0.6,4-2,10c0.3,0.3,0.7,0.7,1,1c7.3-0.3,7.4-2,9,4
	c6.5,3.9,6.6,8.4,9,14c8.3,2.3,16.7,4.7,25,7c2.7,2.5,1.2,6.1,5,8c4.3,0.7,8.7,1.3,13,2c6.4,4.7,7.7,11,17,14c0,0.3,0,0.7,0,1
	c-26.9,0.1-46.2-21.8-66-32c-3.5,2.5-5.5,3.1-7,8c-0.7-0.3-1.3-0.7-2-1c2.1-4.2,3-5.8,3-10c-3.7-0.3-7.3-0.7-11-1
	c2.5-6.5-2.9-14-11-16c-0.8,4.9,0.7,3-3,5c-0.1-9.8-12-21.2-17-26c-3.3,1.5-2.7,2-5,4c-0.3-4-0.7-8-1-12c-1,0.7-2,1.3-3,2
	c-2.4,4.4-1.4,1.7-5,0c-6.7-14.2-22.3-25.9-26-43c1.7-1.3,3.3-2.7,5-4c0-1,0-2,0-3c-5.5-3.9-11.6-8-16-13c2.8-3.5,4.8-5.7,6-11
	c-1.7,0-3.3,0-5,0c0.3-2.7,0.7-5.3,1-8c-3.1-0.9-3.5-0.2-6-2c4.2-2.3,5.2-6.1,2-10c-1.3,1.3-2.7,2.7-4,4c-1.9-9.5-2.3-13.3,0-22
	c-10.1-1.6-11-9.7-9-20c2.1-1.7,2-1.5,6-2c0.3-4.3,0.7-8.7,1-13c-3,0.7-6,1.3-9,2c0-6.2-1-9.3-3-13c-1,0-2,0-3,0c-0.7,1-1.3,2-2,3
	c4.4,10.4-2.4,19.4-10,26c-0.7-12-1.3-24-2-36c-5.7,1.5-5.8,3.4-8,8c-1.3,0-2.7,0-4,0c-1.5-22.7,0.8-56,7-81c1.1-4.6-2.2-10.6-2-11
	c10-21.7,19-39.2,23-57c-1,0-2,0-3,0c0,0.7,0,1.3,0,2c-4.7,1.4-4.4,1.7-6,6c-2-1.3-4-2.7-6-4c6.8-4.8,4.1-14.4,4-19
	c13.9-10.5,23.6-31.9,30-44c1.6-3.1,42.3-38.4,47-41c-8.7,8.7-17.3,17.3-26,26c2.2,12-5.2,18.2-10,25c0,0.3,0,0.7,0,1
	c1.7,0,3.3,0,5,0c4.7-4,9.3-8,14-12c4.1,2.7,6.4,3.1,8-4c-4-0.4-3.9-0.3-6-2c10.9-2.9,12-12.4,21-17c0.3,0,0.7,0,1,0
	c0.3,4.2-0.1,4,2,6c-2.1,8-7,8.5-9,17c1-0.3,2-0.7,3-1c9.7-12.4,25-26.1,39-34c0.7,0.3,1.3,0.7,2,1c0,1.3,0,2.7,0,4
	c-12.9,2.4-39.7,22.7-34,38c3,1,6,2,9,3c15.1-16.9,55.4-48,74-55c0-1.3,0-2.7,0-4c-5.8-0.7-4.2-0.8-7-4c-3.8,2.1-6.9,4-10,2
	c7.4-3.9,12.4-19.7,16-27c-0.7,0-1.3,0-2,0c-3.3,0.3-6.7,0.7-10,1c1-1.3,2-2.7,3-4c3.9-0.2,7,0.3,6-6c1-0.7,2-1.3,3-2
	c6.8-2.4,12.7-0.5,17-5c-1-1.7-2-3.3-3-5c-28.3-7.2-33.2,24-55,22c0.3-0.7,0.7-1.3,1-2c8.6-3.9,6.6-10.1,14-10c0.8-5.8,0.6-7.4,2-11
	c1.7-0.7,3.3-1.3,5-2c-0.7,2-1.3,4-2,6c2,0,4,0,6,0c1.8-4.7,3.6-4.3,8-6c-0.3-2-0.7-4-1-6c7.4-0.3,19.4-2.4,23-5
	c1.4-9.8,24.2-13.4,36-14c-1,2-2,4-3,6c1,0,2,0,3,0c7-1.7,14-3.3,21-5c3-2.8,2.8-7,7-9c8.6-4.1,10.5,1.4,20-1c4.7-2.7,9.3-5.3,14-8
	c4.5,4.6,45.7,15.4,55,12c-0.3-1.7-0.7-3.3-1-5c7,0.3,14,0.7,21,1c0.5,4.8-0.1,7.2,3,9c0,0.3,0,0.7,0,1c4,4.8,14.4,1.2,16,0
	c6.3,3.3,12.7,6.7,19,10c0,0.3,0,0.7,0,1c-17-1.7-49-16.4-62-5c-0.7-3.6-0.7-2.9-2-5c-2.7,0.3-5.3,0.7-8,1
	C363,20.4,363,22.4,363,24.4z M408,3.4c3,2,6,4,9,6c-6.6-0.4-15.7-1.3-19-2C401.3,6.1,404.7,4.7,408,3.4z M446,45.4c3,0.3,6,0.7,9,1
	c-0.3,1.3-0.7,2.7-1,4c-3.6-0.6-3-0.4-5-2C448,47.4,447,46.4,446,45.4z M467,53.4c4,1.7,8,3.3,12,5c-0.3,0.7-0.7,1.3-1,2
	C470.8,60.4,466.8,58,467,53.4z M169,57.4c0.3,1,0.7,2,1,3c-0.3,0-0.7,0-1,0c-0.3-0.3-0.7-0.7-1-1C168.3,58.7,168.7,58.1,169,57.4z
	 M160,64.4c0.7,0,1.3,0,2,0C161.3,64.4,160.7,64.4,160,64.4z M191,65.4c1.3,0.3,2.7,0.7,4,1c-0.3,1-0.7,2-1,3c-2.3,0.7-4.7,1.3-7,2
	C188.3,69.4,189.7,67.4,191,65.4z M196,65.4c0.3,0.7,0.7,1.3,1,2C196.7,66.7,196.3,66.1,196,65.4z M498,69.4c4.3,1.6,6.1,1.7,8,6
	c-4.4,1.7-2.7,1.7-5,5c0-0.7,0-1.3,0-2C500,75.4,499,72.4,498,69.4z M141,73.4c2.7,0.3,5.3,0.7,8,1c-0.3,1-0.7,2-1,3
	c-13.9,2.9-16.5,14.7-26,18C127.3,87.1,138.7,80.7,141,73.4z M177,74.4c0.7,0,1.3,0,2,0c-1,1.3-2,2.7-3,4c-0.3,0-0.7,0-1,0
	C175.7,77.1,176.3,75.7,177,74.4z M160,78.4c0.7,0,1.3,0,2,0C161.3,78.4,160.7,78.4,160,78.4z M465,82.4c-3-1.3-1.2,0-3-2
	C465,81.7,463.2,80.4,465,82.4z M502,80.4c3.3,2,6.7,4,10,6c0,0.3,0,0.7,0,1C506.4,86.4,504.1,84.9,502,80.4z M512,87.4
	c1.3,1,2.7,2,4,3C511.5,89.1,514,91.1,512,87.4z M537,101.4c1,3,2,6,3,9c-1.3,0-2.7,0-4,0c-1.3-1-2.7-2-4-3
	C533.7,105.4,535.3,103.4,537,101.4z M164,104.4c0.7,0,1.3,0,2,0C164.3,105.4,165.8,105.3,164,104.4z M540,113.4c0.7,0,1.3,0,2,0
	C540.3,114.4,541.8,114.3,540,113.4z M216,124.4c1,0,2,0,3,0c-2,2.3-2.6,2.6-8,3c0.7-1.3,1.3-2.7,2-4C214,123.7,215,124.1,216,124.4
	z M615,154.4c-3.2-2.7-3.1-2.3-3-6C613,150.4,614,152.4,615,154.4z M75,163.4c-0.3,0.7-0.7,1.3-1,2c-0.3-0.7-0.7-1.3-1-2
	C73.7,163.4,74.3,163.4,75,163.4z M258,196.4c1,0,2,0,3,0C260,196.4,259,196.4,258,196.4z M69,232.4c-1.3,4.3-2.7,8.7-4,13
	c1.7,1.7,3.3,3.3,5,5c-7.1,5.2-7.5,12-10,22c5.9,0.8,4.6,1,11,1c-1.2,4.2-0.9,2.3-1,7c-2.3,2.6-2.7,3.1-7,4c-2.6,1.3-0.3,0.8-4-1
	c-0.3,0-0.7,0-1,0c-1,4.3-2,8.7-3,13c3,1.5,4.9,3.3,8,7c-4.4,1.4-2-0.7-4,3c-3.3-1.5-1.2,0.5-2-3c-1.7,0.3-3.3,0.7-5,1
	c-4.5,23.3-6.3,37.5-11,56c-1-0.7-2-1.3-3-2c1.2-6.8,2.8-10.1,2-18c3.5,1.8,1.2-0.6,3,3c1,0,2,0,3,0c-1.1-9.8-12.7-45.5-1-48
	c0.5-5.6,1.7-4.6-3-7c0-0.3,0-0.7,0-1c2.5-2,0.4-0.6,3-1c5-4.3,5.6-11.1,2-16c3-2.7,6-5.3,9-8c-1.7-0.3-3.3-0.7-5-1
	c4-10.7,8-21.3,12-32C65.6,231.8,64,231.6,69,232.4z M102,235.4c-0.7,0.3-1.3,0.7-2,1c0.3,0.7,0.7,1.3,1,2c-2.1-2.3-0.5,0.1-1-3
	C100.7,235.4,101.3,235.4,102,235.4z M202,245.4c0.7,0,1.3,0,2,0C203.3,245.4,202.7,245.4,202,245.4z M109,274.4
	c-0.7,2.3-1.3,4.7-2,7c-0.5,3.4,1.6,2.8,5,7c-3.2-0.7-3.5,2.1-4,4c-2.4,1.9-5.1,2.1-10,2c4.3-6.3,5.4-15.6,6-23
	C105.7,272.4,107.3,273.4,109,274.4z M46,280.4c-0.3,1-0.7,2-1,3c-0.3-1.7-0.7-3.3-1-5C44.7,279.1,45.3,279.7,46,280.4z M106,300.4
	c0,0.7,0,1.3,0,2c-0.3,0-0.7,0-1,0c0.3-2.3,0.7-4.7,1-7C106,297.1,106,298.7,106,300.4z M162,298.4c-2.2,4-5,37.1-4,39
	c1.5,2.8,5.6,2.2,4,9c-2.7,8-5.3,16-8,24c-0.7,0.3-1.3,0.7-2,1c-12.5-24.2,3.1-36.7,3-71c1.3-1,2.7-2,4-3
	C160,297.7,161,298.1,162,298.4z M98,301.4c1.9,10.3,7.7,6.2,2,19c0.9,3.7,0.4,3.7-4,5c1-7.9-0.2-9.1,4-16c-1.7-0.7-3.3-1.3-5-2
	c0.7-2,1.3-4,2-6C97.3,301.4,97.7,301.4,98,301.4z M66,349.4c0,0.7,0,1.3,0,2c-0.7-0.7-1.3-1.3-2-2c0.7-2.7,1.3-5.3,2-8
	C66,344.1,66,346.7,66,349.4z M62,359.4c0.3-1,0.7-2,1-3C63.8,358.9,63.4,357.3,62,359.4z M48,377.4c0.7,0.7,1.3,1.3,2,2
	c-0.3,0.3-0.7,0.7-1,1c-0.7-0.3-1.3-0.7-2-1c0-0.3,0-0.7,0-1C47.3,378.1,47.7,377.7,48,377.4z M183,379.4c0.7,0,1.3,0,2,0
	c-0.7,0.7-1.3,1.3-2,2C183,380.7,183,380.1,183,379.4z M6,383.4c2.9,2.7,4,13.8,2,18c-0.3,0-0.7,0-1,0C6.7,395.4,6.3,389.4,6,383.4z
	 M47,387.4c1,0.7,2,1.3,3,2c-1.9,2.4-0.6,1.6-4,3C46.3,390.7,46.7,389.1,47,387.4z M49,398.4c3,2.9,2.1,9.7,1,14
	c-0.7-0.3-1.3-0.7-2-1C49.1,406,49.7,404.2,49,398.4z M10,412.4c1.7,0.3,3.3,0.7,5,1c-2.8,9.5,2.4,21.3,9,26c2.4-2.1-0.2-0.9,3-1
	c0.1,10.1,3.2,11.3,5,19c-0.3,0-0.7,0-1,0c0-0.7,0-1.3,0-2c-1.3-1.3-2.7-2.7-4-4c1,2.7,2,5.3,3,8c-1.3-1-2.7-2-4-3
	C19.6,440,13,431.2,10,412.4z M52,414.4c2.5,3.4,3.3,1.9,0,5C52,417.7,52,416.1,52,414.4z M54,418.4c4.3,4.5,4.3,9,3,17
	c-0.3,0-0.7,0-1,0C54.7,428.9,52.7,425.5,54,418.4z M87,419.4c1.9,3.3,2.8,4.3,3,10c-0.7,0.3-1.3,0.7-2,1c-0.3,0-0.7,0-1,0
	c-1-3.7-2-7.3-3-11C85,419.4,86,419.4,87,419.4z M120,427.4c-1.7-0.3-3.3-0.7-5-1c-0.7,0.3-1.3,0.7-2,1c1.7-3.5,3.2-4.2,5-8
	C121.6,422.2,120.3,421.3,120,427.4z M532,429.4c0.7,0,1.3,0,2,0C533.3,429.4,532.7,429.4,532,429.4z M527,431.4c1.3,0,2.7,0,4,0
	c-1,1.3-2,2.7-3,4c-3.3,1.3-6.7,2.7-10,4C521,436.7,524,434.1,527,431.4z M98,436.4c2,5.3,4,10.7,6,16c-1.3,1.3-2.7,2.7-4,4
	c-1.7-0.3-3.3-0.7-5-1c-5.4-3.1-5.8-10.2-7-15c2.3-1.3,4.7-2.7,7-4C96,436.4,97,436.4,98,436.4z M10,439.4c0.7,1.3,1.3,2.7,2,4
	c-1-0.7-2-1.3-3-2C9.3,440.7,9.7,440.1,10,439.4z M516,439.4c0.3,1,0.7,2,1,3c-2.3,0.3-4.7,0.7-7,1c0-0.3,0-0.7,0-1
	C512,441.4,514,440.4,516,439.4z M579,439.4c0,2.4,0.2,2.6-2,5C577.7,442.7,578.3,441.1,579,439.4z M132,455.4c1.7,0,3.3,0,5,0
	c-0.7,1.7-1.3,3.3-2,5c2.7,1,5.3,2,8,3c-0.3,1-0.7,2-1,3c-2.3-0.7-4.7-1.3-7-2c0,2.3,0,4.7,0,7c1.6,2.3,1.8,1.7,3,5
	c4.7,0.3,3.5,0.5,7-1c7.5,2.7,8.2,8.9,18,10c0,0.3,0,0.7,0,1c-2.5,2.6-2.6,2.8-8,3c1.3,6.7,2.7,13.3,4,20c1.3,0,2.7,0,4,0
	c0.3,0.7,0.7,1.3,1,2c-0.7,0.3-1.3,0.7-2,1c-15-11.1-30.8-32.1-38-45c0-4.7,0-9.3,0-14c-2.5-2.4-2.5-1.7-6-1c0.3-2.7,0.7-5.3,1-8
	c1-0.3,2-0.7,3-1c1.9,3,1.5,3.1,1,7c2.3,0,4.7,0,7,0c0.3-1.3,0.7-2.7,1-4c-2.3-2.2-2.6-1.4-4-5C132.5,445.3,134,448.9,132,455.4z
	 M12,443.4c1.3,3.9,2.6,2-1,4C11.3,446.1,11.7,444.7,12,443.4z M41,444.4c1.3,1.3,2.7,2.7,4,4c-0.3,1.3-0.7,2.7-1,4
	c-0.7-0.3-1.3-0.7-2-1c0-0.3,0-0.7,0-1C41.7,448.4,41.3,446.4,41,444.4z M499,445.4c2.7,0,5.3,0,8,0c-0.3,0.7-0.7,1.3-1,2
	c-2.3,1-4.7,2-7,3C499,448.7,499,447.1,499,445.4z M549,446.4c0.3,0.7,0.7,1.3,1,2C549.7,447.7,549.3,447.1,549,446.4z M544,449.4
	c0.3,0.7,0.7,1.3,1,2C544.7,450.7,544.3,450.1,544,449.4z M546,449.4c0.7,0,1.3,0,2,0C547.3,449.4,546.7,449.4,546,449.4z
	 M571,449.4c0.3,0.7,0.7,1.3,1,2C571.7,450.7,571.3,450.1,571,449.4z M541,452.4c0.1,1.8,1.1,1.2-2,3
	C539.7,454.4,540.3,453.4,541,452.4z M568,452.4c0.1,1.8,1.1,1.2-2,3C566.7,454.4,567.3,453.4,568,452.4z M44,453.4
	c0.3,0.7,0.7,1.3,1,2C44.7,454.7,44.3,454.1,44,453.4z M506,453.4c0.7,0,1.3,0,2,0c-1,0.7-2,1.3-3,2
	C505.3,454.7,505.7,454.1,506,453.4z M487,463.4c-1-1-2-2-3-3c4.8,0.8,8.1-1.1,11-5C496.8,460.4,491.1,461.8,487,463.4z M537,455.4
	c0.7,0,1.3,0,2,0C538.3,455.4,537.7,455.4,537,455.4z M563,456.4c-0.5,4.2-2.2,5.4-8,7c0.7-1,1.3-2,2-3
	C559,459.1,561,457.7,563,456.4z M575,456.4c1.3,0.7,2.7,1.3,4,2c-0.7,1-1.3,2-2,3c-1,0.3-2,0.7-3,1
	C574.3,460.4,574.7,458.4,575,456.4z M32,457.4c1,1.3,2,2.7,3,4c-0.3,1-0.7,2-1,3c-0.3,0.3-0.7,0.7-1,1c-0.7-0.7-1.3-1.3-2-2
	c-0.7,0-1.3,0-2,0c0.3-1.3,0.7-2.7,1-4C30.7,458.7,31.3,458.1,32,457.4z M126,460.4c1,0,2,0,3,0c0,1.7,0,3.3,0,5c-0.3,0-0.7,0-1,0
	C127.3,463.7,126.7,462.1,126,460.4z M51,461.4c-0.5,1.5-0.3,2-3,4c-0.3-1-0.7-2-1-3C48.3,462.1,49.7,461.7,51,461.4z M572,462.4
	c0.7,0.7,1.3,1.3,2,2C573.3,463.7,572.7,463.1,572,462.4z M520,463.4c1,0,2,0,3,0c-0.7,0.7-1.3,1.3-2,2
	C520.7,464.7,520.3,464.1,520,463.4z M468,465.4c-0.3,1.3-0.7,2.7-1,4c-0.7-0.3-1.3-0.7-2-1c0.3-1,0.7-2,1-3
	C466.7,465.4,467.3,465.4,468,465.4z M517,465.4c1,0,2,0,3,0c-1.7,1-3.3,2-5,3C515.7,467.4,516.3,466.4,517,465.4z M567,465.4
	c0.7,0,1.3,0,2,0C568.3,465.4,567.7,465.4,567,465.4z M109,535.4c13.2,2.1,21.2,13,33,21c-1,1-2,2-3,3c0,0.7,0,1.3,0,2
	c-2.7-1-5.3-2-8-3c0,1.3,0,2.7,0,4c0.3,1,0.7,2,1,3c5.6,1.9,7.9,5.3,15,7c2.6-3.6-0.3-1.3,4-2c1.7,1.7,3.3,3.3,5,5
	c-2.9,3.1-1.9,3.5-3,7c6.7,2.9,12.6,8.2,22,11c-1.2-4-1.8-5.7,0-8c2.3,2.7,4.7,5.3,7,8c-6-0.1-4-1.4-7,3c0,0.3,0,0.7,0,1
	c23.9,2.1,39.8,21.8,59,27c-0.3-2.3-0.7-4.7-1-7c-7.5-4-9.2-9.4-20-10c0.3-1.7,0.7-3.3,1-5c4.7,3.6,10.4,9,13,1c0.3,0,0.7,0,1,0
	c10.7,5.3,14.9,12.4,28,17c-0.3,0.7-0.7,1.3-1,2c-4.3-0.3-8.7-0.7-13-1c0.3,2,0.7,4,1,6c2.7,0,5.3,0,8,0c2.3,14.3,19.1,3.9,21,7
	c6.4,3.9,9.1,8.5,18,11c0,0.3,0,0.7,0,1c-6,1.1-5.5,3.3-9,4c-36-4.2-70.8-30.2-102-48c-4.7-1-9.3-2-14-3c0,0-0.8-5.5-2-7
	c-8-10-43.9-34.7-57-40c-0.7,0.7-1.3,1.3-2,2c11.3,15.3,37.2,49.2,59,53c0.3-1.7,0.7-3.3,1-5c1.3,0.7,2.7,1.3,4,2
	c-1.4,3.6-1.5,3.8-1,8c17.6,0.4,28.9,10,36,21c9.8-0.2,13.9-0.8,22,1c0,0.3,0,0.7,0,1c-3.9,4.3-4.1,4.1-1,9c6.3,2.8,17.3,4.4,22,11
	c-0.7,0.7-1.3,1.3-2,2c-9-4-18.1-5.8-23-14c-45.1-7.8-72.5-40-102-64c-5.2-4.2-28.2-18.9-29-18c-2.4-2.1-16.7-28.2-25-31
	c1.8-2.7,2-1.8,3-6c-7.6-4.3-34.4-39.5-35-55c0.3,0,0.7,0,1,0c6,7.6,12.2,14.3,19,21c2.3,0,4.7,0,7,0c-1-11-9-14-9-24
	c0.3,0,0.7,0,1,0c0.3,0.7,0.7,1.3,1,2c9.6,7.9,13.8,25.4,21,33c1,0,2,0,3,0c0-3,0-6,0-9c4.9,3,17.3,10.9,16,15c2.1,4,2.4,10.1,5,13
	c2.3,0,4.7,0,7,0c1.1,3.6,1.1,2.7,3,5c-1.7,0-3.3,0-5,0c0.3,1.3,0.7,2.7,1,4c1.7,0,3.3,0,5,0C109,531.4,109,533.4,109,535.4z
	 M68,466.4c2.7,5.3,5.3,10.7,8,16c-0.7,0.3-1.3,0.7-2,1c-1.7-1.3-3.3-2.7-5-4C67,471.9,65.6,469.6,68,466.4z M468,475.4
	c-4.3-0.7-1.4,1.6-4-2c-1,0-2,0-3,0c3.3-2.7,8-1.1,15-5C478.7,469.8,469.7,474.3,468,475.4z M148,471.4c0,0.3,0,0.7,0,1
	c-1.3,0.3-2.7,0.7-4,1c-0.3-0.7-0.7-1.3-1-2c0.7-0.7,1.3-1.3,2-2C146,470.1,147,470.7,148,471.4z M226,470.4c1.4,4.4-0.7,2,3,4
	c-1.3,4.2-0.5,3.2-4,5c-0.1-3.9,1.7-4.5-6-5c0-0.3,0-0.7,0-1c0.7-1,1.3-2,2-3C222.7,470.4,224.3,470.4,226,470.4z M114,479.4
	c-1,0-2,0-3,0c0.7-2.3,1.3-4.7,2-7C115.2,475.2,114.6,475.4,114,479.4z M528,472.4c2.3,3.5-0.7,3-4,4c0.3-1,0.7-2,1-3
	C526,473.1,527,472.7,528,472.4z M511,476.4c-1.7,1-3.3,2-5,3c0.3-1.3,0.7-2.7,1-4C508.3,475.7,509.7,476.1,511,476.4z M572,475.4
	c1,0.7,2,1.3,3,2c-1,1-2,2-3,3c-1.7,0-3.3,0-5,0c0-1.3,0-2.7,0-4C568.7,476.1,570.3,475.7,572,475.4z M504,481.4c-0.3,1-0.7,2-1,3
	c0-1,0-2,0-3C503.3,481.4,503.7,481.4,504,481.4z M125,485.4c0,1,0,2,0,3c-1.7-1.7-3.3-3.3-5-5C121.7,484.1,123.3,484.7,125,485.4z
	 M121,490.4c-1,0-2,0-3,0c0.7-1,1.3-2,2-3C120.3,488.4,120.7,489.4,121,490.4z M127,492.4c0.7,0.3,1.3,0.7,2,1c-3.6,0.7-3.2,1-4-4
	C125.7,490.4,126.3,491.4,127,492.4z M262,495.4c-0.3,0-0.7,0-1,0s-0.7,0-1,0c0.3-2,0.7-4,1-6C261.3,491.4,261.7,493.4,262,495.4z
	 M331,496.4c0.7,0.7,1.3,1.3,2,2c-2.3-0.3-4.7-0.7-7-1c-0.3,0-0.7,0-1,0c1.9,4.5,4.2,3.8,7,7c-2.3-0.3-4.7-0.7-7-1
	c-2.1-4.6-2.6-4.9-2-11c-1.3-0.7-2.7-1.3-4-2C326,490.5,328.7,491.6,331,496.4z M649,493.4c0.7,0,1.3,0,2,0c-1,1.3-2,2.7-3,4
	c-0.7-0.7-1.3-1.3-2-2C647,494.7,648,494.1,649,493.4z M671,493.4c0.3,1,0.7,2,1,3c-0.3,0-0.7,0-1,0c-0.3-0.3-0.7-0.7-1-1
	C670.3,494.7,670.7,494.1,671,493.4z M136,506.4c0.7,0.7,1.3,1.3,2,2c-1.7,0-3.3,0-5,0c-1.3-4.3-2.7-8.7-4-13
	C131.3,499.1,133.7,502.7,136,506.4z M58,496.4c1.4,3.3,2.6,7.1,1,11c0,0.7,0,1.3,0,2c-2.5-4-2.2-5.5-3-10c-3.1-1.1-3.2-0.8-5-3
	C53.3,496.4,55.7,496.4,58,496.4z M682,496.4c1,0,2,0,3,0c-6.8,18.7-40,56.2-58,62c2.7-3,5.3-6,8-9c-4.8-1.8-5.6,1-8-3
	C637.4,543.4,678.1,510.8,682,496.4z M96,497.4c0.7,0,1.3,0,2,0c-0.7,0.7-1.3,1.3-2,2C96,498.7,96,498.1,96,497.4z M666,498.4
	c0.7,0,1.3,0,2,0C666.3,499.4,667.8,499.3,666,498.4z M469,503.4c-2.1,6-6.3,10.5-13,12c0-0.3,0-0.7,0-1c4-3.7,8-7.3,12-11
	C468.3,503.4,468.7,503.4,469,503.4z M81,506.4c-1-0.7-2-1.3-3-2C81,505.7,79.2,504.4,81,506.4z M598,504.4c-0.7,0.9,0.2,1.6-2,1
	C596.7,505.1,597.3,504.7,598,504.4z M218,507.4c-3.8-0.9-2.7,0.4-5-2C216.6,506.1,216,505.8,218,507.4z M473,529.4
	c-1.3,0.7-2.7,1.3-4,2c4.5-11.3,19.6-14.2,27-23C497.4,513.9,479.3,527.1,473,529.4z M87,511.4c0,1,0,2,0,3c-1.3-1.7-2.7-3.3-4-5
	C84.3,510.1,85.7,510.7,87,511.4z M146,509.4c0.7,0.3,1.3,0.7,2,1c-0.3,2-0.7,4-1,6c-1-0.3-2-0.7-3-1c0-2,0-4,0-6
	C144.7,509.4,145.3,509.4,146,509.4z M221,509.4c0.7,0.3,1.3,0.7,2,1C222.3,510.1,221.7,509.7,221,509.4z M545,509.4
	c0.7,0,1.3,0,2,0c-0.7,1.3-1.3,2.7-2,4c-2-0.3-4-0.7-6-1C543.5,511.7,542.9,512.2,545,509.4z M74,523.4c9.9-2.4,10.3,4.5,17,8
	c0,0.3,0,0.7,0,1c-4,1-8,2-12,3c-4-8.5-11.4-15.5-18-24c0.3-0.3,0.7-0.7,1-1C69,512.9,73.3,514.3,74,523.4z M240,510.4
	c0.3,0.7,0.7,1.3,1,2c-1.3,0.7-2.7,1.3-4,2c-0.3,0-0.7,0-1,0c0.7-1.3,1.3-2.7,2-4C238.7,510.4,239.3,510.4,240,510.4z M453,514.4
	c0.7,0.3,1.3,0.7,2,1C454.3,515.1,453.7,514.7,453,514.4z M89,516.4c0.7,0.3,1.3,0.7,2,1C90.3,517.1,89.7,516.7,89,516.4z
	 M584,517.4c0.7,0,1.3,0,2,0C585.3,517.4,584.7,517.4,584,517.4z M91,521.4c3.4,2.2,2,2,6,2c0.7,0.7,1.3,1.3,2,2
	c-2.4,4.2-1.9,2.6-7,2c-1.2-4.3-0.7-2.6-3-5c0.3-1.3,0.7-2.7,1-4C92.1,520.7,90.5,518.3,91,521.4z M577,521.4c0.7,0,1.3,0,2,0
	C578.3,521.4,577.7,521.4,577,521.4z M208,522.4c4.7,4.9,7.6,0,13,2c-0.3,1-0.7,2-1,3c-3.9,5.4-7.4,1.8-13,0c-1.7-3.8-1.1-1.3,0-5
	C207.3,522.4,207.7,522.4,208,522.4z M311,572.4c-0.3,1.3-0.7,2.7-1,4c3.1,1.5,3.3,1.7,7,1c0.6,4-0.1,3,2,5c-5.4,2.7-60.8-6.3-65-9
	c-14.7-9.2-26.7-28.1-46-29c-1-2.3-2-4.7-3-7c-4.6-0.9-1.1-1.5-5,2c-5.3-4.3-10.7-8.7-16-13C218.4,536.3,264,570.2,311,572.4z
	 M459,528.4c0,0.3,0,0.7,0,1c-0.7,1.3-1.3,2.7-2,4c-2.7,1-5.3,2-8,3c-0.7-1-1.3-2-2-3c3-1.7,6-3.3,9-5
	C457,528.4,458,528.4,459,528.4z M102,532.4c-3.6-1-2,0.1-4-2C99.3,531.1,100.7,531.7,102,532.4z M251,538.4c-0.3,0.3-0.7,0.7-1,1
	c-1,0-2,0-3,0c-0.7-0.3-1.3-0.7-2-1c0-1.3,0-2.7,0-4C247,535.7,249,537.1,251,538.4z M236,538.4c-2.7,0-5.3,0-8,0c0-1,0-2,0-3
	C230.7,536.4,233.3,537.4,236,538.4z M425,537.4c-1.3,1.3-2.7,2.7-4,4c-1.7,0-3.3,0-5,0c0-1,0-2,0-3c0.7-0.3,1.3-0.7,2-1
	C420.3,537.4,422.7,537.4,425,537.4z M295,540.4c-4-0.6-3,0.1-5-2C293.6,539.1,293,538.8,295,540.4z M195,542.4c-3-1.3-1.2,0-3-2
	C193,541.1,194,541.7,195,542.4z M261,541.4c3.8,2.1,1.4,1,3,4c-1,0.3-2,0.7-3,1c-1-2-2-4-3-6C259,540.7,260,541.1,261,541.4z
	 M260,546.4c0,0.3,0,0.7,0,1c-1.7,1.3-3.3,2.7-5,4c-2,0-4,0-6,0c-3-2.1-4.1-3.6-5-8C248.6,545.3,252.7,546.5,260,546.4z M116,545.4
	c1.3,1.7,2.7,3.3,4,5c-3.5-1.5-3.4-1.8-5-5C115.3,545.4,115.7,545.4,116,545.4z M396,550.4c-1.7,0-3.3,0-5,0c0-0.3,0-0.7,0-1
	c0.7-1,1.3-2,2-3C394,547.7,395,549.1,396,550.4z M183,547.4c4.7,1.9,7.2,3.3,10,7C188,553.1,185,551.9,183,547.4z M71,551.4
	c0.3,0.7,0.7,1.3,1,2C71.7,552.7,71.3,552.1,71,551.4z M301,552.4c0.3,1.3,0.7,2.7,1,4c-3.9-1.8-2.8-0.3-4-5
	C299,551.7,300,552.1,301,552.4z M462,552.4c0.9,3.5-1.2,1.3,2,3c-6,7.4-17.8,8.6-23,15c-4.2,3.7-2.4,1.6-2,6c-7.3,1.9-11.4,2-16,4
	c-0.3,0-0.7,0-1,0c3.5-7.3,4.4-9.9,7-18c5-0.3,10-0.7,15-1c0.7-1,1.3-2,2-3c-2.3-0.3-4.7-0.7-7-1c0-0.3,0-0.7,0-1
	c4.3-1.7,8.7-3.3,13-5C455.5,552.8,455.4,552.6,462,552.4z M71,554.4c0.7,0,1.3,0,2,0C72.3,554.4,71.7,554.4,71,554.4z M303,555.4
	c0,0.7,0,1.3,0,2C303,556.7,303,556.1,303,555.4z M601,557.4c1.3,1,2.7,2,4,3c0,0.3,0,0.7,0,1c-2,0-4,0-6,0
	C599.7,560.1,600.3,558.7,601,557.4z M620,557.4c1.3,1,2.7,2,4,3c-0.7,0-1.3,0-2,0c-2.7,2-5.3,4-8,6c0.7-0.7,1.3-1.3,2-2
	C617.3,562.1,618.7,559.7,620,557.4z M93,570.4c3.3,2.7,4.6,7.6,6,12c-2.6-0.9-4.3-1.2-6-3C90.9,575.3,91.4,573.9,93,570.4z
	 M447,571.4c1,0.7,2,1.3,3,2C449,572.7,448,572.1,447,571.4z M606,575.4c2,0,4,0,6,0c-0.7,1-1.3,2-2,3c-4.8,0.3-11.6,7.7-14,13
	c-3-0.7-6-1.3-9-2c0.7-1,1.3-2,2-3C594.7,582.7,600.3,579.1,606,575.4z M195,576.4c1,0,2,0,3,0c-0.6,4-1.2,4.2,1,7
	c8.2-1.9,10.1,6.9,12,8c0.3,0.7,0.7,1.3,1,2c-0.7-1.3-1.3-2.7-2-4c2,1,4,2,6,3c-0.7,1-1.3,2-2,3c-0.3,0-0.7,0-1,0
	c-3.7-0.3-7.3-0.7-11-1c-1.9-4.8-4.5-5.6-6-11c-3.7,0.3-7.3,0.7-11,1c1-1.7,2-3.3,3-5c2,1,4,2,6,3c0.3-0.3,0.7-0.7,1-1
	C195,579.7,195,578.1,195,576.4z M348,577.4c0.3,0.7,0.7,1.3,1,2c-1,1-2,2-3,3c-1.7-0.3-3.3-0.7-5-1c-0.7,0-1.3,0-2,0
	c2.3-1.3,4.7-2.7,7-4C346.7,577.4,347.3,577.4,348,577.4z M161,578.4c0.7,0.7,1.3,1.3,2,2c-0.3,0.3-0.7,0.7-1,1
	C161.7,580.4,161.3,579.4,161,578.4z M484,586.4c2,0,4,0,6,0c-0.3,0.7-0.7,1.3-1,2c-2.7,1.7-5.3,3.3-8,5c-1.7-0.3-3.3-0.7-5-1
	c0-0.3,0-0.7,0-1c0.3-0.7,0.7-1.3,1-2C479.3,588.4,481.7,587.4,484,586.4z M112,589.4c3.3,0.3,6.7,0.7,10,1c-0.8,6.3,3.2,7.4,5,14
	C122,599.4,117,594.4,112,589.4z M191,592.4c-0.3-0.7-0.7-1.3-1-2C190.3,591.1,190.7,591.7,191,592.4z M335,596.4
	c2.9,0.4,3.6,0.7,6,4c-9.1-1-14.9-2-19-8C329,592.1,332.3,592.5,335,596.4z M290,593.4c0.7,0.3,1.3,0.7,2,1c-0.3,0.7-0.7,1.3-1,2
	c0.3,0.7,0.7,1.3,1,2c-3.1-2-13.3-2.6-16-5C280.7,593.4,285.3,593.4,290,593.4z M471,593.4c0.7,0,1.3,0,2,0
	C472.3,593.4,471.7,593.4,471,593.4z M193,594.4c0,1.3,0,2.7,0,4C193,597.1,193,595.7,193,594.4z M227,594.4c7.9,2.6,9.3,1,12,6
	c-0.8,1.9-0.2,3.6,3,2c0,1.3,0,2.7,0,4c-0.3,0-0.7,0-1,0c-0.7-0.7-1.3-1.3-2-2C235,601.1,231,597.7,227,594.4z M256,601.4
	c0.7,0,1.3,0,2,0C257.3,601.4,256.7,601.4,256,601.4z M458,606.4c1,0,2,0,3,0c0,1,0,2,0,3C457.1,607.6,456.8,609.6,458,606.4z
	 M321,608.4c1.3,0,2.7,0,4,0c-0.3,1-0.7,2-1,3c-0.3,0-0.7,0-1,0C319.8,609.7,320.3,611.7,321,608.4z M453,609.4c0.7,0,1.3,0,2,0
	C454.3,609.4,453.7,609.4,453,609.4z M255,611.4c1,1.7,2,3.3,3,5c-1-0.3-2-0.7-3-1C255,614.1,255,612.7,255,611.4z M449,611.4
	c1.7,2,3.3,4,5,6c-4.3-0.3-8.7-0.7-13-1c0.7,0,1.3,0,2,0C445.9,614.4,447.1,614.6,449,611.4z M149,614.4c0,2,0,4,0,6
	c-0.3,0-0.7,0-1,0c-2.3-2.3-4.7-4.7-7-7C143.7,613.7,146.3,614.1,149,614.4z M468,613.4c1,0,2,0,3,0C470,613.4,469,613.4,468,613.4z
	 M462,614.4c0.7,0.7,1.3,1.3,2,2c-1,0-2,0-3,0C461.3,615.7,461.7,615.1,462,614.4z M464,614.4c1,0,2,0,3,0
	C466,614.4,465,614.4,464,614.4z M396,618.4c1.3,0.3,2.7,0.7,4,1c-0.3,0.7-0.7,1.3-1,2c-0.7,0-1.3,0-2,0c-1.3,0.3-2.7,0.7-4,1
	c0-1,0-2,0-3C394,619.1,395,618.7,396,618.4z M465,619.4c2,0.7,4,1.3,6,2c-0.7,0.3-1.3,0.7-2,1c-2.3,1.7-4.7,3.3-7,5
	c-3.2-2.3-6.8-3-11-5C457.7,622.7,461.5,622.1,465,619.4z M269,620.4c2.7,0,5.3,0,8,0c1.7,4.7,4,4.9,7,8c-0.3,0.7-0.7,1.3-1,2
	c-3.7,0.3-7.3,0.7-11,1c-1-5.4-0.3-4.3-6-5C267,624.4,268,622.4,269,620.4z M414,623.4c1,0,2,0,3,0c1,1,2,2,3,3
	c-0.7,0.3-1.3,0.7-2,1c-3.3,0-6.7,0-10,0c0.3-0.7,0.7-1.3,1-2C410.7,624.7,412.3,624.1,414,623.4z M169,627.4c1,0,2,0,3,0
	C171,627.4,170,627.4,169,627.4z M320,627.4c1,1,2,2,3,3C322,629.4,321,628.4,320,627.4z M423,661.4c0,3,0,6,0,9
	c5.7-0.8,24.9-7.3,29-4c-14.1,3.2-37.5,18.5-56,11c0.7,0,1.3,0,2,0c0.4-0.8,7.3-0.8,12-1c0.3-1,0.7-2,1-3c-3-2-6-4-9-6
	c3.4-5.1,4.1-7-2-10c-2.7-0.5-1.5,0.6-4-2c17-1.1,33.7-6,41-16c0-0.3,0-0.7,0-1c-4-2.3-8-4.7-12-7c3-0.3,6-0.7,9-1
	c0.6,3.6,0.4,3,2,5c3.7,0.3,7.3,0.7,11,1c0-2,0-4,0-6c8.5,1.1,30.6-1.1,34,5c-0.3,1-0.7,2-1,3c-10.9,3.5-20.7,9.1-31,15
	c-8.5-4-13.2-0.8-24,0c1.1,4,1.6,3.8,2,6c-4.8,0.1-3.9,1.4-11-1c0,1.3,0,2.7,0,4C418.3,662.1,420.7,661.7,423,661.4z M296,634.4
	c-0.7-0.7-1.3-1.3-2-2C294.7,633.1,295.3,633.7,296,634.4z M456,636.4c-3-1.3-1.2,0-3-2C454,635.1,455,635.7,456,636.4z M408,635.4
	c2,0,4,0,6,0c0,0.3,0,0.7,0,1c-0.7,0-1.3,0-2,0c-2.3,1-4.7,2-7,3c0.3,1.7,0.7,3.3,1,5c-3-1-6-2-9-3c1-0.3,2-0.7,3-1
	C402.7,638.7,405.3,637.1,408,635.4z M449,637.4c0,0.3,0,0.7,0,1c-3,1-6,2-9,3c-0.7-1.3-1.3-2.7-2-4
	C441.7,637.4,445.3,637.4,449,637.4z M386,641.4c1,0.7,2,1.3,3,2c-10,1.3-24.2,8.9-30,3C369.5,646.8,380.1,645.8,386,641.4z
	 M393,641.4c0.7,0,1.3,0,2,0C394.3,641.4,393.7,641.4,393,641.4z M340,645.4c3.3,0.7,6.7,1.3,10,2c-0.7,0.7-1.3,1.3-2,2
	c-1.3,2.2-2.1,2.3-7,3c-0.7-0.7-1.3-1.3-2-2c-0.7,0-1.3,0-2,0C338,648.7,339,647.1,340,645.4z M487,647.4c1,0,2,0,3,0
	C489,647.4,488,647.4,487,647.4z M485,648.4c0.7,0,1.3,0,2,0c-0.3,1.3-0.7,2.7-1,4c-5.8,0.8-4.8,3.4-7-2
	C481.5,650.2,482.3,650.4,485,648.4z M471,653.4c1.7,0.3,3.3,0.7,5,1c-2,1-4,2-6,3C470.3,656.1,470.7,654.7,471,653.4z M330,656.4
	c1.3,0.3,2.7,0.7,4,1c0,0.3,0,0.7,0,1C330.9,658.1,328,659.3,330,656.4z M465,661.4c-0.3-0.7-0.7-1.3-1-2
	C464.3,660.1,464.7,660.7,465,661.4z M248,660.4c0.7,0,1.3,0,2,0C249.3,660.4,248.7,660.4,248,660.4z M267,660.4c4,3.3,5,6.3,11,8
	c0,0.3,0,0.7,0,1c-6.6-0.5-11-1.3-15-5C267,663.5,264.9,664.9,267,660.4z M255,662.4c2.7,0.3,5.3,0.7,8,1c0,0.3,0,0.7,0,1
	C257.8,664.6,258.1,665.4,255,662.4z M453,662.4c1,0.7,2,1.3,3,2c-1.3,0.3-2.7,0.7-4,1C452.3,664.4,452.7,663.4,453,662.4z
	 M457,662.4c0.7,0,1.3,0,2,0C458.3,662.4,457.7,662.4,457,662.4z M361,679.4c2,0,4,0,6,0c0,0.3,0,0.7,0,1c-2,0.3-4,0.7-6,1
	C361,680.7,361,680.1,361,679.4z M381,679.4c0.7,0,1.3,0,2,0C382.3,679.4,381.7,679.4,381,679.4z"/>
</svg>
